<svg width="64" height="26" viewBox="0 0 64 26" fill="none" xmlns="http://www.w3.org/2000/svg">
<path d="M0.740634 22.9342C1.72817 22.9314 9.33883 22.7594 10.6492 22.7213C11.8713 22.698 12.6993 22.517 13.3132 22.3698C13.4168 22.3449 13.5187 22.3129 13.6147 22.2666C13.7598 22.1967 13.8722 22.1268 13.9623 22.0569C14.1197 21.9347 14.2251 21.7527 14.2355 21.5536C14.24 21.467 14.24 21.3567 14.24 21.1994L14.0471 14.9114C14.0471 14.9114 13.8543 9.47395 13.8543 8.43827C13.8543 7.40259 20.0729 7.63142 20.0729 8.5747C20.0729 9.51798 20.0729 21.4854 20.0729 21.4854C20.0729 25.9157 20.015 25.9287 14.1762 25.9157C14.1762 25.9157 1.72812 25.8243 0.740634 25.8243C-0.246857 25.8243 -0.246898 22.9369 0.740634 22.9342ZM14.054 0.832942C15.589 -0.277647 18.4903 -0.277647 20.0254 0.832942C21.5237 1.91696 21.5237 4.11804 20.0254 5.20206C18.4903 6.31265 15.2145 6.31497 13.8954 5.02369C12.7384 3.891 12.5557 1.91696 14.054 0.832942Z" fill="#101010"/>
<path d="M22.7387 25.9287C22.0022 25.9287 22.0022 23.1942 22.7387 23.1942C23.4752 23.1942 31.3189 22.8484 32.6472 22.8104C33.9755 22.785 34.9808 22.7723 35.6629 22.6583C36.345 22.5442 36.5963 22.3033 36.7399 22.0498C36.9014 21.809 36.9553 21.6188 36.9553 21.1371L36.8604 19.6621C36.7926 18.6096 35.9192 17.7906 34.8645 17.7906H29.1006C27.996 17.7906 27.1006 16.8949 27.1006 15.7903C27.1006 15.2641 27.1006 14.7873 27.1006 14.5867C27.1006 14.0338 27.1006 11.3828 27.1006 11.3828C27.1006 6.28159 26.4404 6.83838 31.651 6.83838H36.2014C43.2437 6.98081 42.125 5.98355 42.125 11.0215V21.4604C41.7611 26.926 43.2437 25.9287 36.0398 25.9287C36.0398 25.9287 23.4752 25.9287 22.7387 25.9287Z" fill="#101010"/>
<path d="M44.7086 23.042C45.4254 23.042 53.3248 22.8484 54.6172 22.8104C55.9276 22.785 56.7174 22.6583 57.4175 22.5061C57.873 22.4072 58.0704 22.3047 58.2059 22.2006C58.3417 22.0962 58.4647 21.9677 58.5315 21.81C58.5812 21.6929 58.5937 21.5763 58.5937 21.3845L58.0151 15.0732C58.0151 15.0732 57.8223 9.69596 57.8223 8.5877C57.8223 7.47944 64 7.47944 64 8.5877C64 9.69596 64 21.4984 64 21.4984C64 25.9287 64 25.9287 57.9956 25.9287C57.9956 25.9287 45.2206 25.7801 44.7086 25.7801C44.1967 25.7801 43.9919 23.042 44.7086 23.042Z" fill="#101010"/>
</svg>
