<svg width="40" height="40" viewBox="0 0 40 40" fill="none" xmlns="http://www.w3.org/2000/svg">
<path d="M27.8944 9.81846C31.5644 9.81846 33.3994 9.81846 34.3848 10.9925C35.3701 12.1665 35.0307 13.9485 34.3518 17.5124L33.7333 20.7589C33.2512 23.29 33.0101 24.5555 32.0979 25.3031C31.1857 26.0506 29.8825 26.0506 27.276 26.0506H15.3512C14.048 26.0506 13.3964 26.0506 12.9403 25.6769C12.4842 25.3031 12.3637 24.6703 12.1226 23.4047L10.2673 13.6654C9.92787 11.8835 9.75815 10.9925 10.2508 10.4055C10.7435 9.81846 11.661 9.81846 13.496 9.81846L27.8944 9.81846Z" fill="#101010"/>
<path d="M16.1052 32.5435C16.1052 33.44 15.3697 34.1667 14.4625 34.1667C13.5553 34.1667 12.8198 33.44 12.8198 32.5435C12.8198 31.647 13.5553 30.9203 14.4625 30.9203C15.3697 30.9203 16.1052 31.647 16.1052 32.5435Z" fill="#101010"/>
<path d="M32.532 32.5435C32.532 33.44 31.7965 34.1667 30.8893 34.1667C29.9821 34.1667 29.2466 33.44 29.2466 32.5435C29.2466 31.647 29.9821 30.9203 30.8893 30.9203C31.7965 30.9203 32.532 31.647 32.532 32.5435Z" fill="#101010"/>
<path d="M10.2673 13.6654L9.28499 13.8526L10.2673 13.6654ZM13.496 9.81846V8.81846V9.81846ZM15.3512 26.0506V27.0506V26.0506ZM12.1226 23.4047L13.1049 23.2176L12.1226 23.4047ZM33.7333 20.7589L32.751 20.5717L33.7333 20.7589ZM27.276 26.0506V25.0506V26.0506ZM34.3518 17.5124L35.3341 17.6995V17.6995L34.3518 17.5124ZM27.8944 9.81846V10.8185V9.81846ZM4.76204 5.34791C4.22562 5.47933 3.8973 6.02073 4.02872 6.55715C4.16015 7.09357 4.70154 7.42188 5.23796 7.29046L5 6.31919L4.76204 5.34791ZM6.78725 5.88132L7.02521 6.85259L6.78725 5.88132ZM8.71313 6.86745L9.67899 6.60839L9.66426 6.55347L9.6434 6.50058L8.71313 6.86745ZM34.3518 17.5124L33.3694 17.3253L32.751 20.5717L33.7333 20.7589L34.7157 20.946L35.3341 17.6995L34.3518 17.5124ZM27.276 26.0506V25.0506H15.3512V26.0506V27.0506H27.276V26.0506ZM12.1226 23.4047L13.1049 23.2176L11.2497 13.4783L10.2673 13.6654L9.28499 13.8526L11.1403 23.5919L12.1226 23.4047ZM13.496 9.81846V10.8185L27.8944 10.8185V9.81846V8.81846L13.496 8.81846L13.496 9.81846ZM10.2673 13.6654L11.2497 13.4783C11.0741 12.5567 10.9653 11.9724 10.946 11.5425C10.928 11.1416 11.0002 11.0681 11.0168 11.0483L10.2508 10.4055L9.48483 9.76261C9.00875 10.3299 8.91946 10.9954 8.94803 11.6322C8.9753 12.2401 9.1211 12.9922 9.28499 13.8526L10.2673 13.6654ZM13.496 9.81846V8.81846C12.6089 8.81846 11.8369 8.8161 11.2304 8.90163C10.5981 8.99079 9.95888 9.19778 9.48483 9.76261L10.2508 10.4055L11.0168 11.0483C11.0354 11.0262 11.1012 10.9396 11.5097 10.882C11.9438 10.8208 12.548 10.8185 13.496 10.8185V9.81846ZM15.3512 26.0506V25.0506C14.6746 25.0506 14.2575 25.0489 13.9492 25.0113C13.6676 24.9769 13.5999 24.9245 13.5742 24.9034L12.9403 25.6769L12.3065 26.4503C12.7368 26.803 13.223 26.9375 13.707 26.9965C14.1643 27.0524 14.7247 27.0506 15.3512 27.0506V26.0506ZM12.1226 23.4047L11.1403 23.5919C11.256 24.1995 11.3583 24.7464 11.4992 25.1826C11.6489 25.6461 11.8749 26.0966 12.3065 26.4503L12.9403 25.6769L13.5742 24.9034C13.5496 24.8833 13.4873 24.8306 13.4024 24.5679C13.3087 24.2778 13.2302 23.8755 13.1049 23.2176L12.1226 23.4047ZM33.7333 20.7589L32.751 20.5717C32.5051 21.8624 32.3362 22.7393 32.1253 23.3925C31.9231 24.0183 31.7166 24.3227 31.4641 24.5296L32.0979 25.3031L32.7317 26.0765C33.3914 25.536 33.7615 24.8338 34.0285 24.0072C34.2866 23.2078 34.4794 22.1864 34.7157 20.946L33.7333 20.7589ZM27.276 26.0506V27.0506C28.5542 27.0506 29.6032 27.0524 30.4435 26.9498C31.3102 26.844 32.0734 26.6161 32.7317 26.0765L32.0979 25.3031L31.4641 24.5296C31.2102 24.7376 30.8657 24.8834 30.2012 24.9645C29.5101 25.0489 28.6043 25.0506 27.276 25.0506V26.0506ZM34.3518 17.5124L35.3341 17.6995C35.6677 15.9482 35.9408 14.5278 35.9913 13.4011C36.0432 12.2454 35.8732 11.2104 35.1508 10.3496L34.3848 10.9925L33.6188 11.6354C33.8817 11.9486 34.0346 12.3916 33.9934 13.3114C33.9508 14.2601 33.7147 15.5127 33.3694 17.3253L34.3518 17.5124ZM27.8944 9.81846V10.8185C29.7599 10.8185 31.0523 10.8208 32.0067 10.9554C32.9355 11.0864 33.3538 11.3197 33.6188 11.6354L34.3848 10.9925L35.1508 10.3496C34.4304 9.49129 33.4386 9.13755 32.286 8.97501C31.1591 8.8161 29.699 8.81846 27.8944 8.81846V9.81846ZM5 6.31919L5.23796 7.29046L7.02521 6.85259L6.78725 5.88132L6.54929 4.91004L4.76204 5.34791L5 6.31919ZM8.71313 6.86745L7.74726 7.12651L8.97748 11.7131L9.94334 11.4541L10.9092 11.195L9.67899 6.60839L8.71313 6.86745ZM6.78725 5.88132L7.02521 6.85259C7.34825 6.77345 7.66921 6.94616 7.78285 7.23432L8.71313 6.86745L9.6434 6.50058C9.15734 5.26807 7.82934 4.59644 6.54929 4.91004L6.78725 5.88132ZM16.1052 32.5435H15.1052C15.1052 32.8765 14.8287 33.1667 14.4625 33.1667V34.1667V35.1667C15.9108 35.1667 17.1052 34.0035 17.1052 32.5435H16.1052ZM14.4625 34.1667V33.1667C14.0963 33.1667 13.8198 32.8765 13.8198 32.5435H12.8198H11.8198C11.8198 34.0035 13.0143 35.1667 14.4625 35.1667V34.1667ZM12.8198 32.5435H13.8198C13.8198 32.2105 14.0963 31.9203 14.4625 31.9203V30.9203V29.9203C13.0143 29.9203 11.8198 31.0835 11.8198 32.5435H12.8198ZM14.4625 30.9203V31.9203C14.8287 31.9203 15.1052 32.2105 15.1052 32.5435H16.1052H17.1052C17.1052 31.0835 15.9107 29.9203 14.4625 29.9203V30.9203ZM32.532 32.5435H31.532C31.532 32.8765 31.2555 33.1667 30.8893 33.1667V34.1667V35.1667C32.3376 35.1667 33.532 34.0035 33.532 32.5435H32.532ZM30.8893 34.1667V33.1667C30.5231 33.1667 30.2466 32.8765 30.2466 32.5435H29.2466H28.2466C28.2466 34.0035 29.4411 35.1667 30.8893 35.1667V34.1667ZM29.2466 32.5435H30.2466C30.2466 32.2105 30.5231 31.9203 30.8893 31.9203V30.9203V29.9203C29.4411 29.9203 28.2466 31.0835 28.2466 32.5435H29.2466ZM30.8893 30.9203V31.9203C31.2555 31.9203 31.532 32.2105 31.532 32.5435H32.532H33.532C33.532 31.0835 32.3376 29.9203 30.8893 29.9203V30.9203Z" fill="#101010"/>
</svg>
