<svg width="40" height="40" viewBox="0 0 40 40" fill="none" xmlns="http://www.w3.org/2000/svg">
<path d="M26.983 3.33337H13.0163C6.94967 3.33337 3.33301 6.95004 3.33301 13.0167V26.9667C3.33301 33.05 6.94967 36.6667 13.0163 36.6667H26.9663C33.033 36.6667 36.6497 33.05 36.6497 26.9834V13.0167C36.6663 6.95004 33.0497 3.33337 26.983 3.33337ZM28.133 19.2167C28.133 19.8667 27.6163 20.3834 26.9663 20.3834C26.3163 20.3834 25.7997 19.8667 25.7997 19.2167V18.9167L21.2663 23.45C21.0163 23.7 20.683 23.8167 20.333 23.7834C19.983 23.75 19.6663 23.5667 19.483 23.2667L17.783 20.7334L13.8163 24.7C13.583 24.9334 13.2997 25.0334 12.9997 25.0334C12.6997 25.0334 12.3997 24.9167 12.183 24.7C11.733 24.25 11.733 23.5167 12.183 23.05L17.1497 18.0834C17.3997 17.8334 17.733 17.7167 18.083 17.75C18.433 17.7834 18.7497 17.9667 18.933 18.2667L20.633 20.8L24.1497 17.2834H23.8497C23.1997 17.2834 22.683 16.7667 22.683 16.1167C22.683 15.4667 23.1997 14.95 23.8497 14.95H26.9497C27.0997 14.95 27.2497 14.9834 27.3997 15.0334C27.683 15.15 27.9163 15.3834 28.033 15.6667C28.0997 15.8167 28.1163 15.9667 28.1163 16.1167V19.2167H28.133Z" fill="#101010"/>
</svg>
